<svg width="144" height="39" viewBox="0 0 144 39" fill="none" xmlns="http://www.w3.org/2000/svg">
<path d="M15.7728 10L22.5043 23.9911H9.04136L15.7728 10Z" fill="#787878"/>
<circle cx="21.167" cy="22.4524" r="7.02281" stroke="black" stroke-width="1.5"/>
<rect y="3" width="6" height="6" fill="#101010"/>
<rect y="33" width="6" height="6" fill="#101010"/>
<rect x="30" y="33" width="6" height="6" fill="#101010"/>
<rect x="30" y="3" width="6" height="6" fill="#101010"/>
<rect x="3.75" y="6.75" width="28.5" height="28.5" stroke="black" stroke-width="1.5"/>
<path d="M49.9723 23.908C48.8896 23.908 47.865 23.705 46.8983 23.299C45.951 22.8737 45.11 22.3033 44.3753 21.588C43.66 20.8727 43.0896 20.0413 42.6643 19.094C42.2583 18.1273 42.0553 17.093 42.0553 15.991C42.0553 14.9083 42.2583 13.8933 42.6643 12.946C43.0896 11.9793 43.6503 11.1383 44.3463 10.423C45.0616 9.70767 45.9026 9.147 46.8693 8.741C47.836 8.31566 48.8703 8.103 49.9723 8.103H86.8313C87.6433 8.103 88.32 8.37366 88.8613 8.915C89.4026 9.45633 89.6733 10.133 89.6733 10.945C89.6733 11.757 89.4026 12.4337 88.8613 12.975C88.32 13.5163 87.6433 13.787 86.8313 13.787H49.8273C49.2086 13.787 48.677 13.9997 48.2323 14.425C47.807 14.8503 47.5943 15.3723 47.5943 15.991C47.5943 16.5903 47.8166 17.1123 48.2613 17.557C48.706 17.9823 49.228 18.195 49.8273 18.195H82.7133C83.8153 18.195 84.8496 18.398 85.8163 18.804C86.783 19.21 87.624 19.7707 88.3393 20.486C89.0546 21.2013 89.6153 22.052 90.0213 23.038C90.4466 24.0047 90.6593 25.0487 90.6593 26.17C90.6593 27.272 90.4563 28.3063 90.0503 29.273C89.6443 30.2203 89.0836 31.042 88.3683 31.738C87.653 32.434 86.812 32.985 85.8453 33.391C84.8786 33.797 83.8346 34 82.7133 34H45.3323C44.5396 34 43.863 33.7293 43.3023 33.188C42.7416 32.6467 42.4613 31.97 42.4613 31.158C42.4613 30.346 42.732 29.6693 43.2733 29.128C43.834 28.5673 44.5203 28.287 45.3323 28.287H82.9453C83.5253 28.287 84.0376 28.084 84.4823 27.678C84.927 27.272 85.1493 26.7693 85.1493 26.17C85.1493 25.5513 84.9366 25.0197 84.5113 24.575C84.086 24.1303 83.564 23.908 82.9453 23.908H49.9723ZM99.2961 34C98.5034 34 97.8267 33.7293 97.2661 33.188C96.7247 32.6273 96.4541 31.9507 96.4541 31.158V10.945C96.4541 10.133 96.7247 9.45633 97.2661 8.915C97.8074 8.37366 98.4841 8.103 99.2961 8.103H134.908C136.01 8.103 137.044 8.306 138.011 8.712C138.997 9.118 139.848 9.67867 140.563 10.394C141.298 11.1093 141.878 11.9503 142.303 12.917C142.728 13.8837 142.941 14.9277 142.941 16.049C142.941 16.977 142.777 17.876 142.448 18.746C142.139 19.5967 141.684 20.3797 141.085 21.095C141.646 21.8297 142.09 22.6127 142.419 23.444C142.767 24.2753 142.941 25.155 142.941 26.083C142.941 27.185 142.728 28.2193 142.303 29.186C141.878 30.1333 141.298 30.9647 140.563 31.68C139.848 32.3953 138.997 32.9657 138.011 33.391C137.044 33.797 136.01 34 134.908 34H99.2961ZM102.167 28.287H135.14C135.759 28.287 136.29 28.0743 136.735 27.649C137.18 27.2237 137.402 26.7017 137.402 26.083C137.402 25.4643 137.18 24.952 136.735 24.546C136.29 24.1207 135.759 23.908 135.14 23.908H109.069C108.276 23.908 107.6 23.6373 107.039 23.096C106.498 22.5353 106.227 21.849 106.227 21.037C106.227 20.2443 106.498 19.5773 107.039 19.036C107.6 18.4753 108.276 18.195 109.069 18.195H135.198C135.817 18.195 136.339 17.992 136.764 17.586C137.189 17.18 137.402 16.6677 137.402 16.049C137.402 15.4497 137.17 14.9277 136.706 14.483C136.261 14.019 135.739 13.787 135.14 13.787H102.167V28.287Z" fill="black"/>
</svg>
