<svg width="600" height="600" viewBox="0 0 600 600" fill="none" xmlns="http://www.w3.org/2000/svg">
<g clip-path="url(#clip0_43_155)">
<path d="M37.8908 332.328C37.8908 332.53 37.7647 332.719 37.7143 332.921C37.5252 332.379 37.3361 331.849 37.1597 331.306C36.8572 330.423 36.5546 329.54 36.2647 328.657C36.5924 329.414 36.9202 330.184 37.2731 330.928C37.4622 331.407 37.6765 331.874 37.8908 332.328Z" fill="url(#paint0_linear_43_155)"/>
<path d="M562.286 267.091C562.286 267.293 562.172 267.482 562.109 267.684C533.622 204.605 476.849 158.367 409.349 146.042C407.786 145.764 406.235 145.499 404.66 145.247C363.796 119.793 314.771 110.896 267.579 120.368C220.387 129.84 178.581 156.968 150.682 196.223C122.784 235.478 110.893 283.905 117.435 331.631C123.976 379.357 148.457 422.789 185.887 453.075C172.976 450.101 160.355 445.984 148.172 440.775C130.073 433.115 113.108 423.008 97.7521 410.736C89.82 404.239 82.3756 397.168 75.479 389.579C60.0482 372.589 47.3657 353.289 37.8907 332.379C38.1428 331.483 38.4201 330.6 38.6975 329.717L37.9412 328.707C37.7143 329.464 37.4874 330.221 37.2731 330.978C36.9201 330.234 36.5924 329.464 36.2647 328.707C36.5546 329.591 36.8571 330.474 37.1596 331.357C25.5279 371.457 27.4464 414.279 42.6176 453.176L43.3991 455.182C46.4585 462.981 50.0337 470.567 54.1008 477.891C16.2072 421.978 -2.72038 355.352 0.112222 287.85C2.94482 220.347 27.3875 155.545 69.8319 103.009C70.4874 102.176 71.0924 101.356 71.8487 100.549C76.8151 94.4679 81.979 88.6309 87.3403 83.0379C97.1222 73.2622 107.953 64.5972 119.634 57.2005C124.954 53.9876 130.416 51.0439 136.021 48.3693C154.329 39.497 173.881 33.4689 194.004 30.4926C202.45 29.4412 210.996 28.7306 219.643 28.3605C220.802 28.2848 221.975 28.2469 223.134 28.2091L226.626 28.1082H226.891C231.933 27.982 236.933 27.982 241.891 28.1082L245.395 28.1965L248.647 28.31C250.323 28.3731 252.013 28.4488 253.689 28.5497C255.366 28.6507 257.029 28.739 258.731 28.8651C259.84 28.9408 260.962 29.0165 262.071 29.1174C270.971 29.8239 279.794 30.8837 288.542 32.2967C295.071 33.348 301.542 34.6096 307.954 36.0814C309.025 36.3085 310.097 36.5608 311.155 36.8132C312.492 37.1159 313.815 37.4313 315.151 37.772C317.244 38.2766 319.336 38.8065 321.454 39.3616L323.899 40.0302C326 40.5937 328.101 41.1909 330.202 41.8217C332.294 42.4272 334.361 43.0833 336.429 43.7267L339.529 44.7233C343.79 46.1111 348 47.5998 352.134 49.1515C353.697 49.7318 355.26 50.3248 356.811 50.943C358.361 51.5612 359.924 52.2046 361.475 52.7849C364.576 54.0465 367.664 55.3081 370.714 56.7084C371.861 57.2131 373.008 57.7177 374.143 58.2476C375.277 58.7774 376.55 59.3452 377.748 59.9129C378.945 60.4806 379.878 60.9095 380.937 61.4268L384.013 62.9281C385.273 63.521 386.445 64.1897 387.655 64.7574C388.865 65.3251 389.874 65.8928 390.983 66.4732L394.286 68.2268C396.496 69.4043 398.685 70.6112 400.853 71.8475C401.937 72.4531 403.021 73.1091 404.105 73.7147C405.189 74.3203 406.26 74.9763 407.332 75.6071C408.403 76.2379 409.475 76.8687 410.534 77.5373C411.592 78.206 412.664 78.7989 413.723 79.4928C414.781 80.1867 415.84 80.8174 416.887 81.4987C417.126 81.6375 417.353 81.7889 417.58 81.9403C418.979 82.836 420.378 83.7443 421.765 84.6653C424.992 86.81 428.189 89.0094 431.357 91.2634C432.878 92.3484 434.391 93.446 435.895 94.5562C437.626 95.8262 439.349 97.1214 441.063 98.4419L443.357 100.208L445.651 102.012C447.252 103.274 448.853 104.535 450.428 105.873C452.004 107.21 453.58 108.472 455.143 109.809C456.706 111.146 458.408 112.61 460.021 114.035C461.634 115.461 462.933 116.621 464.37 117.933L467.13 120.457L469.865 122.98C471.126 124.128 472.273 125.289 473.471 126.462C474.668 127.635 475.853 128.808 477.025 129.994C478.197 131.18 479.37 132.379 480.529 133.577C481.097 134.157 481.664 134.75 482.218 135.343C483.059 136.184 483.899 137.08 484.739 138.031C486.693 140.112 488.622 142.232 490.513 144.339C491.344 145.259 492.151 146.18 492.958 147.114L493.525 147.77C494.319 148.678 495.113 149.599 495.882 150.52C496.651 151.441 497.647 152.602 498.517 153.662C500.269 155.756 501.996 157.888 503.685 160.033C504.735 161.345 505.769 162.669 506.786 164.007C507.239 164.587 507.693 165.18 508.122 165.76C508.55 166.341 509.017 166.934 509.382 167.514C510.202 168.586 510.996 169.646 511.777 170.731C513.971 173.708 516.113 176.728 518.206 179.789L519.555 181.757L521.458 184.596C522.441 186.076 523.412 187.565 524.37 189.062C525.239 190.399 526.097 191.749 526.891 193.099C527.685 194.449 528.668 195.988 529.55 197.439C530.433 198.89 531.302 200.353 532.16 201.817C533.017 203.28 534.063 205.097 534.996 206.749L535.16 207.04C536.118 208.722 537.059 210.425 537.983 212.149C538.815 213.65 539.622 215.177 540.416 216.691C540.945 217.7 541.475 218.709 541.992 219.731C542.773 221.245 543.542 222.772 544.298 224.311C545.067 225.85 545.811 227.389 546.555 228.928C547.298 230.467 548.017 232.032 548.735 233.583L549.996 236.309C550.412 237.217 550.815 238.138 551.256 239.059C551.697 239.98 551.949 240.623 552.29 241.418C552.744 242.465 553.197 243.525 553.639 244.585C554.206 245.922 554.773 247.272 555.315 248.622C557.155 253.121 558.907 257.671 560.571 262.272C561.139 263.811 561.718 265.451 562.286 267.091Z" fill="url(#paint1_linear_43_155)"/>
<path d="M37.1597 331.306C36.8572 330.423 36.5546 329.54 36.2647 328.657C36.5924 329.414 36.9202 330.184 37.2731 330.928C37.4874 330.171 37.7143 329.414 37.9412 328.657L38.6975 329.666C38.4202 330.549 38.1429 331.432 37.8908 332.328C37.8908 332.53 37.7647 332.719 37.7143 332.921C26.29 372.462 28.0109 414.648 42.6176 453.125C27.4465 414.228 25.5279 371.407 37.1597 331.306V331.306Z" fill="url(#paint2_linear_43_155)"/>
<path d="M226.714 28.0199L223.223 28.1209C222.063 28.1209 220.891 28.1966 219.731 28.2723C211.059 28.6003 202.521 29.311 194.118 30.4044C173.995 33.3807 154.443 39.4088 136.134 48.2811C136.134 48.2811 136.134 48.2811 136.134 48.2811C130.521 50.9893 125.059 53.933 119.748 57.1122C125.984 53.1495 132.454 49.5685 139.122 46.3887V46.3887C166.435 33.352 196.47 27.0533 226.714 28.0199V28.0199Z" fill="url(#paint3_linear_43_155)"/>
<path d="M463.866 551.732C462.895 552.337 461.924 552.993 460.941 553.536C356.887 617.309 220.601 617.17 114.58 542.295C113.71 541.677 112.84 541.033 112.059 540.44C105.681 535.848 99.5294 531.063 93.6051 526.083C71.5663 506.699 54.3715 482.416 43.3992 455.182L42.6177 453.176C27.4465 414.279 25.5279 371.457 37.1597 331.357C37.1859 331.228 37.2238 331.101 37.2731 330.978C37.4874 330.221 37.7143 329.464 37.9412 328.708L38.6975 329.717C38.4202 330.6 38.1429 331.483 37.8908 332.379C37.8908 332.581 37.7647 332.77 37.7143 332.972C38.2815 334.612 38.8614 336.252 39.4538 337.879C40.0462 339.507 40.6387 341.134 41.2563 342.749C41.874 344.364 42.3908 345.714 42.9706 347.19C43.6513 348.943 44.3572 350.684 45.063 352.413C45.2269 352.791 45.3782 353.182 45.542 353.561C45.9454 354.545 46.3614 355.516 46.8025 356.488C47.5588 358.288 48.3362 360.087 49.1345 361.887C49.8404 363.452 50.5462 365.016 51.2647 366.568C51.9832 368.12 52.7017 369.671 53.4454 371.223C54.1891 372.762 54.9328 374.301 55.7017 375.828C56.4706 377.354 57.2269 378.894 58.0084 380.408C58.7899 381.921 59.5714 383.448 60.3782 384.949C61.021 386.211 61.6387 387.397 62.3446 388.608C64.1345 391.88 65.9664 395.118 67.8404 398.322C68.6975 399.786 69.5672 401.249 70.4496 402.7C71.3319 404.151 72.2143 405.601 73.1093 407.04C74.0042 408.478 74.8109 409.74 75.6303 411.077C77.5462 414.071 79.5084 417.015 81.5168 419.908C82.4244 421.245 83.3572 422.57 84.2773 423.882C85.1975 425.194 86.1051 426.468 87.0504 427.742C87.4916 428.373 87.9454 429.004 88.4118 429.61C89.1429 430.606 89.874 431.59 90.6177 432.574C91.4874 433.748 92.3698 434.921 93.2773 436.081C94.1849 437.242 95.332 438.743 96.3782 440.056C97.1849 441.077 98.0042 442.099 98.8235 443.109C99.3277 443.752 99.8446 444.37 100.374 445.014C101.155 445.972 101.95 446.931 102.744 447.877C103.815 449.139 104.912 450.401 106.008 451.662C107.105 452.924 108.189 454.185 109.311 455.447C111.571 457.97 113.857 460.493 116.168 463.017C117.29 464.202 118.412 465.376 119.546 466.549C120.681 467.722 121.866 468.946 123.05 470.132C124.235 471.318 125.408 472.491 126.605 473.664C127.803 474.838 129 475.998 130.21 477.146L132.945 479.669L135.706 482.193C143.504 489.308 151.605 496.036 160.008 502.378C161.269 503.35 162.529 504.321 163.79 505.267C165.706 506.68 167.634 508.081 169.576 509.443C170.962 510.427 172.361 511.399 173.761 512.37L174.113 512.61C176.861 514.494 179.634 516.331 182.433 518.123C182.66 518.274 182.887 518.426 183.126 518.564C185.235 519.91 187.336 521.23 189.429 522.526C190.487 523.182 191.559 523.787 192.63 524.456C193.702 525.125 194.773 525.718 195.857 526.348C196.941 526.979 198.025 527.61 199.109 528.216C201.277 529.452 203.466 530.659 205.676 531.836L208.979 533.59C210.088 534.17 211.198 534.751 212.307 535.306C214.538 536.441 216.769 537.551 219.025 538.636C221.282 539.721 223.538 540.781 225.819 541.815C226.954 542.345 228.101 542.85 229.248 543.355C230.395 543.859 231.769 544.44 232.954 544.969L234.366 545.562L238.487 547.278C241.576 548.54 244.689 549.801 247.828 550.912C252.013 552.463 256.223 553.952 260.433 555.34L263.534 556.336C265.601 556.992 267.668 557.598 269.761 558.241C271.853 558.885 273.933 559.503 276.063 560.033C278.193 560.563 280.273 561.181 282.366 561.698C283.424 561.976 284.483 562.241 285.542 562.493C286.601 562.758 287.66 563.01 288.731 563.25C289.803 563.49 290.861 563.754 291.933 563.982C293.559 564.347 295.185 564.688 296.811 565.029L297.555 565.18C298.941 565.47 300.328 565.735 301.714 566L302.181 566.088L304.134 566.454L304.676 566.555C305.811 566.77 306.933 566.972 308.067 567.148L309.618 567.413C310.74 567.615 311.849 567.792 312.971 567.956C314.609 568.208 316.248 568.46 317.899 568.687C318.983 568.851 320.08 569.003 321.189 569.129C321.731 569.217 322.273 569.28 322.828 569.343L324.479 569.545C326.685 569.823 328.891 570.062 331.109 570.277C333.328 570.491 335.546 570.706 337.765 570.883C338.874 570.983 339.996 571.059 341.105 571.135C342.214 571.21 343.626 571.311 344.887 571.374H345.126C346.021 571.374 346.929 571.488 347.824 571.513C347.945 571.526 348.068 571.526 348.189 571.513C349.185 571.513 350.181 571.614 351.177 571.652C353.345 571.74 355.513 571.816 357.693 571.854H357.933C362.908 571.955 367.908 571.955 372.933 571.854H373.071L376.601 571.753C377.761 571.753 378.933 571.677 380.092 571.602C388.882 571.366 397.479 570.702 405.882 569.608C426.005 566.632 445.557 560.604 463.866 551.732V551.732Z" fill="url(#paint4_linear_43_155)"/>
<path d="M562.84 268.706C562.814 268.836 562.776 268.962 562.727 269.085C562.513 269.842 562.286 270.599 562.059 271.356L561.302 270.346C561.58 269.463 561.857 268.58 562.109 267.684C562.109 267.483 562.235 267.293 562.286 267.092C561.718 265.451 561.139 263.811 560.546 262.184C558.866 257.592 557.113 253.042 555.29 248.534C554.748 247.184 554.181 245.834 553.613 244.496C553.172 243.437 552.718 242.377 552.265 241.33C551.924 240.535 551.584 239.753 551.231 238.971C550.878 238.188 550.424 237.129 549.971 236.22L548.71 233.495C547.992 231.944 547.273 230.392 546.529 228.84C545.786 227.288 545.042 225.762 544.273 224.223C543.504 222.684 542.748 221.157 541.966 219.643C541.45 218.621 540.92 217.612 540.391 216.603C539.597 215.089 538.79 213.562 537.958 212.061C537.034 210.379 536.092 208.676 535.134 206.951L534.971 206.661C534.038 205.009 533.092 203.356 532.134 201.729C531.176 200.101 530.408 198.802 529.525 197.351C528.643 195.9 527.761 194.449 526.866 193.011C525.971 191.573 525.164 190.311 524.345 188.974C523.525 187.637 522.416 185.984 521.433 184.508L519.529 181.669L518.181 179.701C516.088 176.648 513.945 173.629 511.752 170.643C510.971 169.558 510.176 168.498 509.357 167.426C508.929 166.846 508.487 166.253 508.097 165.672C507.706 165.092 507.214 164.499 506.76 163.919C505.735 162.581 504.702 161.257 503.66 159.945C501.971 157.8 500.244 155.668 498.492 153.574C497.622 152.514 496.752 151.467 495.857 150.432C494.962 149.398 494.294 148.59 493.5 147.682L492.933 147.026C492.126 146.092 491.319 145.171 490.487 144.25C488.597 142.118 486.706 139.999 484.714 137.942C483.874 137.034 483.034 136.138 482.193 135.255C481.639 134.662 481.071 134.069 480.504 133.489C479.345 132.291 478.185 131.092 477 129.906C475.815 128.72 474.643 127.547 473.445 126.374C472.248 125.2 471.05 124.04 469.84 122.892L467.105 120.368L464.345 117.845C462.908 116.533 461.458 115.234 459.996 113.947C458.382 112.526 456.756 111.117 455.118 109.721C453.479 108.324 451.882 106.991 450.328 105.721C448.752 104.46 447.151 103.123 445.55 101.861L443.256 100.057L440.962 98.2906C439.281 96.9786 437.559 95.6833 435.794 94.4049C434.298 93.2947 432.786 92.1971 431.256 91.1122C428.097 88.8497 424.899 86.6503 421.664 84.5141C420.277 83.5931 418.878 82.6847 417.479 81.789C417.252 81.6376 417.025 81.4862 416.786 81.3474C415.739 80.6662 414.681 79.9976 413.622 79.3415C412.563 78.6855 411.504 78.0168 410.433 77.3861C409.361 76.7553 408.303 76.1245 407.231 75.4558C406.16 74.7872 405.088 74.1942 404.004 73.5634C402.92 72.9326 401.836 72.3018 400.752 71.6963C398.584 70.4599 396.395 69.253 394.185 68.0755L390.882 66.3219C389.773 65.7416 388.664 65.1612 387.555 64.6061C386.445 64.051 385.122 63.3446 383.912 62.7768L380.836 61.2755C379.777 60.7583 378.706 60.2537 377.647 59.7616C376.588 59.2696 375.252 58.6388 374.042 58.0963C372.832 57.5538 371.76 57.0618 370.613 56.5572C367.563 55.2073 364.475 53.8952 361.374 52.6336C359.824 52.0028 358.273 51.3721 356.71 50.7917C355.147 50.2114 353.597 49.5301 352.034 49.0003C347.849 47.4485 343.639 45.9598 339.429 44.5721L336.328 43.5754C334.261 42.9194 332.193 42.3138 330.101 41.6704C328.008 41.027 325.929 40.4088 323.798 39.879L321.353 39.2103C319.286 38.6552 317.193 38.1253 315.05 37.6207C313.714 37.2801 312.391 36.9647 311.055 36.6619C309.996 36.4096 308.924 36.1573 307.853 35.9302C301.45 34.492 294.979 33.2304 288.441 32.1454C279.727 30.7324 270.903 29.6727 261.971 28.9662C260.861 28.8653 259.739 28.7896 258.63 28.7139C256.954 28.5877 255.29 28.4868 253.588 28.3985C251.887 28.3102 250.223 28.2219 248.546 28.1588L245.294 28.0452L241.79 27.9569C236.815 27.856 231.815 27.856 226.79 27.9569H226.613L223.122 28.0578C221.962 28.0578 220.79 28.1335 219.63 28.2092C211.025 28.5793 202.521 29.311 194.118 30.4044C173.995 33.3808 154.443 39.4089 136.134 48.2812C137.105 47.6756 138.076 47.0196 139.059 46.4771C243.113 -17.2964 379.399 -17.1576 485.42 57.7179C486.29 58.336 487.16 58.9794 488.004 59.5724C494.382 64.1646 500.534 68.9502 506.458 73.9293C528.474 93.3207 545.647 117.603 556.601 144.831L557.382 146.837C572.565 185.749 574.484 228.59 562.84 268.706V268.706Z" fill="url(#paint5_linear_43_155)"/>
<path d="M570.794 431.792C554.263 478.082 522.336 517.279 480.365 542.812C475.046 546.025 469.584 548.969 463.979 551.643C445.671 560.516 426.119 566.544 405.996 569.52C397.592 570.563 389.046 571.274 380.357 571.652C379.197 571.728 378.025 571.766 376.865 571.803L373.336 571.904H373.109C368.067 572.031 363.067 572.031 358.109 571.904H357.87C355.689 571.904 353.521 571.778 351.353 571.702C350.357 571.702 349.361 571.627 348.365 571.564C348.244 571.576 348.121 571.576 348 571.564L345.302 571.425H345.063C343.802 571.362 342.542 571.274 341.281 571.185L337.941 570.933C335.71 570.744 333.492 570.554 331.286 570.327C329.08 570.1 326.861 569.861 324.655 569.596L323.004 569.394C322.45 569.331 321.908 569.268 321.365 569.179L318.076 568.738C316.424 568.511 314.786 568.258 313.147 568.006C312.025 567.842 310.916 567.665 309.794 567.464L308.244 567.199C307.109 567.022 305.987 566.82 304.853 566.606L304.311 566.505L302.357 566.139L301.891 566.051C300.504 565.786 299.118 565.521 297.731 565.231L296.987 565.079C295.361 564.739 293.735 564.398 292.109 564.032L288.908 563.3C287.836 563.061 286.777 562.808 285.718 562.543C284.66 562.278 283.601 562.026 282.542 561.749C280.424 561.231 278.319 560.664 276.239 560.083C274.16 559.503 272.055 558.91 269.937 558.292C267.819 557.674 265.777 557.03 263.71 556.387L260.609 555.39C256.349 554.002 252.139 552.514 248.004 550.962C244.878 549.784 241.765 548.573 238.664 547.329L234.454 545.701L233.042 545.108C231.781 544.578 230.521 544.036 229.336 543.493L225.908 541.954C223.626 540.92 221.37 539.86 219.113 538.775C216.857 537.69 214.626 536.58 212.395 535.444L209.067 533.729L205.765 531.975C203.563 530.806 201.374 529.599 199.197 528.354L195.945 526.487C194.861 525.869 193.79 525.226 192.718 524.595C191.647 523.964 190.576 523.333 189.517 522.664C187.391 521.378 185.29 520.057 183.214 518.703C182.975 518.564 182.748 518.413 182.521 518.262C179.723 516.47 176.95 514.632 174.202 512.748L173.849 512.509C172.45 511.537 171.05 510.566 169.664 509.582C167.723 508.219 165.794 506.819 163.878 505.406C162.618 504.46 161.357 503.488 160.097 502.517C151.693 496.15 143.592 489.422 135.794 482.331L133.034 479.808L130.298 477.285C129.038 476.137 127.891 474.976 126.693 473.803C125.496 472.63 124.311 471.457 123.139 470.271C121.966 469.085 120.794 467.886 119.634 466.688C118.475 465.489 117.378 464.341 116.256 463.155C113.937 460.683 111.651 458.159 109.399 455.586C108.277 454.324 107.181 453.063 106.097 451.801C105.013 450.539 103.903 449.278 102.832 448.016C102.038 447.07 101.244 446.111 100.462 445.152C99.9327 444.522 99.4159 443.891 98.9117 443.247C98.0924 442.238 97.2731 441.216 96.4663 440.194C95.4243 438.882 94.3907 437.558 93.3655 436.22C92.458 435.06 91.5756 433.886 90.7059 432.713C89.9622 431.729 89.2311 430.745 88.5 429.748C88.0336 429.13 87.5798 428.487 87.1386 427.881C86.1932 426.62 85.2731 425.358 84.3655 424.021C83.4579 422.683 82.5126 421.384 81.605 420.047C79.605 417.12 77.6428 414.176 75.7185 411.216C74.8487 409.878 73.9916 408.528 73.1974 407.178C72.4033 405.829 71.4201 404.289 70.5378 402.839C69.6554 401.388 68.7857 399.924 67.9285 398.461C66.0546 395.256 64.2227 392.018 62.4327 388.747C61.7647 387.485 61.1722 386.312 60.4664 385.088C59.6596 383.587 58.8781 382.073 58.0966 380.546C57.3151 379.02 56.5462 377.506 55.7899 375.967C55.0336 374.428 54.2773 372.901 53.5336 371.362C52.7899 369.81 52.0714 368.258 51.3529 366.707C50.6344 365.155 49.9285 363.59 49.2227 362.026C48.4327 360.235 47.6554 358.435 46.8907 356.627C46.4748 355.655 46.0588 354.684 45.6302 353.7C45.4664 353.321 45.3151 352.93 45.1512 352.552C44.4453 350.811 43.7521 349.082 43.0588 347.329C42.479 345.853 41.8991 344.376 41.3445 342.888C40.7899 341.399 40.084 339.646 39.542 338.018C39 336.391 38.3697 334.751 37.8025 333.11C37.8025 332.909 37.9159 332.719 37.979 332.518C47.4395 353.373 60.0915 372.625 75.479 389.579C82.3872 397.174 89.8443 404.249 97.7899 410.749C113.146 423.021 130.111 433.128 148.21 440.787C160.393 445.997 173.014 450.113 185.924 453.088C187.626 454.476 189.365 455.838 191.118 457.15L192.529 458.21C194.017 459.328 195.525 460.413 197.055 461.465C199.16 462.928 201.391 464.429 203.748 465.931C204.92 466.675 206.13 467.432 207.365 468.176L209.256 469.312C210.63 470.132 212.004 470.927 213.403 471.696C214.802 472.466 215.924 473.109 217.26 473.778L219.378 474.875C220.097 475.254 220.815 475.607 221.534 475.96L223.752 477.033C225.113 477.689 226.5 478.294 227.924 478.963C228.113 479.064 228.328 479.152 228.529 479.241L230.319 480.023C231.302 480.452 232.298 480.881 233.307 481.284C234.517 481.789 235.752 482.281 237.013 482.76C238.16 483.215 239.332 483.643 240.517 484.022L241.084 484.224C242.218 484.64 243.365 485.044 244.538 485.485C245.71 485.927 247.059 486.331 248.319 486.747C249.58 487.151 250.84 487.529 252.101 487.895C253.067 488.189 254.05 488.467 255.05 488.728C255.807 488.942 256.563 489.144 257.332 489.333C258.101 489.523 258.908 489.75 259.702 489.939C259.866 489.99 260.035 490.028 260.206 490.052C261.164 490.292 262.122 490.519 263.092 490.734L264.908 491.137C265.298 491.226 265.689 491.314 266.08 491.377C266.861 491.554 267.668 491.718 268.462 491.869C269.055 491.995 269.647 492.109 270.252 492.21C270.857 492.311 271.639 492.475 272.344 492.588C273.731 492.841 275.118 493.068 276.529 493.269C277.664 493.446 278.798 493.61 279.933 493.749C281.067 493.888 282.025 494.026 283.071 494.14C283.891 494.241 284.71 494.329 285.592 494.405C286.475 494.481 287.118 494.569 287.887 494.632H288.643C289.815 494.746 291 494.834 292.185 494.909H292.601C293.924 494.998 295.26 495.073 296.597 495.124C297.933 495.174 299.118 495.225 300.454 495.25C301.966 495.25 303.492 495.313 305.017 495.313C343.158 495.282 380.401 483.726 411.872 462.159C443.343 440.593 467.576 410.019 481.399 374.44V374.44C497.277 333.268 498.296 287.839 484.278 245.995C470.261 204.152 442.088 168.519 404.622 145.247C406.197 145.499 407.748 145.764 409.311 146.042C476.811 158.368 533.584 204.58 562.071 267.684C561.819 268.58 561.542 269.463 561.265 270.346L562.021 271.356C562.248 270.599 562.475 269.842 562.689 269.085C562.738 268.962 562.776 268.836 562.802 268.706C574.434 228.606 572.516 185.784 557.344 146.887L556.563 144.881C553.504 137.082 549.928 129.496 545.861 122.172C576.304 167.264 594.595 219.46 598.964 273.704C603.332 327.949 593.629 382.403 570.794 431.792V431.792Z" fill="url(#paint6_linear_43_155)"/>
<path d="M407.546 380.912C407.546 388.441 404.558 395.661 399.239 400.984C393.921 406.307 386.707 409.298 379.185 409.298H212.634C207.033 409.303 201.556 407.648 196.894 404.542C192.231 401.436 188.592 397.018 186.435 391.844C184.278 386.671 183.7 380.974 184.773 375.472C185.846 369.97 188.523 364.91 192.466 360.929L192.555 360.84C193.254 360.077 193.999 359.357 194.786 358.683L303.466 264.556H212.634C208.91 264.556 205.222 263.821 201.781 262.395C198.34 260.968 195.214 258.878 192.58 256.242C189.946 253.606 187.857 250.477 186.432 247.033C185.007 243.589 184.273 239.898 184.273 236.17C184.273 232.442 185.007 228.751 186.432 225.307C187.857 221.863 189.946 218.734 192.58 216.098C195.214 213.462 198.34 211.371 201.781 209.945C205.222 208.518 208.91 207.784 212.634 207.784H379.185C383.658 207.788 388.067 208.85 392.052 210.884C396.037 212.917 399.486 215.864 402.117 219.485C404.748 223.106 406.486 227.298 407.191 231.719C407.896 236.14 407.547 240.665 406.172 244.925V245.039C404.618 250.125 401.654 254.665 397.626 258.134L288.655 352.526H379.235C386.748 352.54 393.949 355.536 399.257 360.858C404.565 366.18 407.546 373.393 407.546 380.912Z" fill="url(#paint7_linear_43_155)"/>
</g>
<defs>
<linearGradient id="paint0_linear_43_155" x1="36.2647" y1="330.789" x2="37.8908" y2="330.789" gradientUnits="userSpaceOnUse">
<stop stop-color="#DFCE00"/>
<stop offset="0.28" stop-color="#FDC70C"/>
<stop offset="0.89" stop-color="#8486C1"/>
</linearGradient>
<linearGradient id="paint1_linear_43_155" x1="-240.756" y1="252.861" x2="321.529" y2="252.861" gradientUnits="userSpaceOnUse">
<stop stop-color="#C53D96"/>
<stop offset="0.28" stop-color="#E9DF15"/>
<stop offset="0.89" stop-color="#FCB136"/>
</linearGradient>
<linearGradient id="paint2_linear_43_155" x1="29.6471" y1="390.891" x2="42.6176" y2="390.891" gradientUnits="userSpaceOnUse">
<stop stop-color="#DFCE00"/>
<stop offset="0.28" stop-color="#FDC70C"/>
<stop offset="0.89" stop-color="#ED683C"/>
</linearGradient>
<linearGradient id="paint3_linear_43_155" x1="258.29" y1="42.5661" x2="365.37" y2="42.5661" gradientUnits="userSpaceOnUse">
<stop offset="0.01" stop-color="#E71E25"/>
<stop offset="0.28" stop-color="#C73227"/>
<stop offset="0.89" stop-color="#DD1F26"/>
</linearGradient>
<linearGradient id="paint4_linear_43_155" x1="162" y1="464.329" x2="596.269" y2="464.329" gradientUnits="userSpaceOnUse">
<stop stop-color="#523A96"/>
<stop offset="0.28" stop-color="#5756A5"/>
<stop offset="0.88" stop-color="#6664AD"/>
</linearGradient>
<linearGradient id="paint5_linear_43_155" x1="206.672" y1="135.684" x2="640.941" y2="135.684" gradientUnits="userSpaceOnUse">
<stop stop-color="#E87E24"/>
<stop offset="0.27" stop-color="#D19B2A"/>
<stop offset="0.89" stop-color="#DD3B26"/>
</linearGradient>
<linearGradient id="paint6_linear_43_155" x1="361.664" y1="347.152" x2="820.273" y2="347.152" gradientUnits="userSpaceOnUse">
<stop stop-color="#0C8B44"/>
<stop offset="0.47" stop-color="#2D2D87"/>
<stop offset="0.93" stop-color="#36489E"/>
</linearGradient>
<linearGradient id="paint7_linear_43_155" x1="407.546" y1="308.535" x2="184.273" y2="308.535" gradientUnits="userSpaceOnUse">
<stop stop-color="#FBB47F"/>
<stop offset="0.28" stop-color="#4DB748"/>
<stop offset="0.89" stop-color="#4E72B8"/>
</linearGradient>
<clipPath id="clip0_43_155">
<rect width="600" height="600" fill="white"/>
</clipPath>
</defs>
</svg>
