<svg width="265" height="143" viewBox="0 0 265 143" fill="none" xmlns="http://www.w3.org/2000/svg">
<ellipse cx="121.555" cy="12.5263" rx="10.625" ry="10" transform="rotate(-10.7363 121.555 12.5263)" fill="url(#paint0_angular_715_237)"/>
<path d="M191.45 59.0704C188.485 43.436 179.432 29.6195 166.28 20.6604C153.129 11.7014 136.957 8.33365 121.323 11.2981C105.688 14.2625 91.8717 23.3163 82.9127 36.4676C73.9536 49.619 70.5859 65.7907 73.5503 81.4251L132.5 70.2478L191.45 59.0704Z" fill="url(#paint1_angular_715_237)"/>
<rect x="72.5" y="85.375" width="120" height="8" fill="#FFC700"/>
<path d="M88.4967 142.645L84.6167 136.365C83.8434 135.138 82.5767 134.525 80.8167 134.525C78.0967 134.525 75.7234 133.925 73.6967 132.725C71.6701 131.525 70.0967 129.845 68.9767 127.685C67.8567 125.498 67.2967 122.938 67.2967 120.005C67.2967 117.045 67.8567 114.485 68.9767 112.325C70.0967 110.165 71.6701 108.498 73.6967 107.325C75.7234 106.125 78.1101 105.525 80.8567 105.525C83.6034 105.525 85.9901 106.125 88.0167 107.325C90.0434 108.498 91.6167 110.165 92.7367 112.325C93.8567 114.485 94.4167 117.032 94.4167 119.965C94.4167 123.165 93.7501 125.912 92.4167 128.205C91.1101 130.498 89.2967 132.178 86.9767 133.245C88.1234 133.618 89.1101 134.512 89.9367 135.925L92.8567 140.565L88.4967 142.645ZM80.8567 130.125C83.4434 130.125 85.4567 129.232 86.8967 127.445C88.3367 125.658 89.0567 123.178 89.0567 120.005C89.0567 116.805 88.3367 114.325 86.8967 112.565C85.4834 110.805 83.4701 109.925 80.8567 109.925C78.2701 109.925 76.2567 110.805 74.8167 112.565C73.3767 114.325 72.6567 116.805 72.6567 120.005C72.6567 123.178 73.3767 125.658 74.8167 127.445C76.2567 129.232 78.2701 130.125 80.8567 130.125ZM99.223 134.125V114.565H104.103V117.565C104.69 116.498 105.503 115.672 106.543 115.085C107.583 114.472 108.783 114.165 110.143 114.165C113.076 114.165 114.996 115.445 115.903 118.005C116.516 116.805 117.396 115.872 118.543 115.205C119.69 114.512 120.996 114.165 122.463 114.165C126.863 114.165 129.063 116.845 129.063 122.205V134.125H124.063V122.405C124.063 120.912 123.81 119.818 123.303 119.125C122.823 118.432 121.996 118.085 120.823 118.085C119.516 118.085 118.49 118.552 117.743 119.485C116.996 120.392 116.623 121.658 116.623 123.285V134.125H111.623V122.405C111.623 120.912 111.37 119.818 110.863 119.125C110.383 118.432 109.57 118.085 108.423 118.085C107.116 118.085 106.09 118.552 105.343 119.485C104.596 120.392 104.223 121.658 104.223 123.285V134.125H99.223ZM143.861 134.525C141.648 134.525 139.741 134.112 138.141 133.285C136.541 132.458 135.301 131.285 134.421 129.765C133.568 128.245 133.141 126.445 133.141 124.365C133.141 122.338 133.554 120.565 134.381 119.045C135.234 117.525 136.394 116.338 137.861 115.485C139.354 114.605 141.048 114.165 142.941 114.165C145.714 114.165 147.901 115.045 149.501 116.805C151.128 118.565 151.941 120.965 151.941 124.005V125.485H137.941C138.314 128.978 140.314 130.725 143.941 130.725C145.034 130.725 146.128 130.565 147.221 130.245C148.314 129.898 149.314 129.365 150.221 128.645L151.621 132.005C150.688 132.778 149.514 133.392 148.101 133.845C146.688 134.298 145.274 134.525 143.861 134.525ZM143.141 117.565C141.674 117.565 140.488 118.018 139.581 118.925C138.674 119.832 138.128 121.058 137.941 122.605H147.781C147.674 120.978 147.221 119.738 146.421 118.885C145.648 118.005 144.554 117.565 143.141 117.565ZM155.901 134.125V114.565H160.781V117.605C161.447 116.485 162.341 115.632 163.461 115.045C164.607 114.458 165.887 114.165 167.301 114.165C171.914 114.165 174.221 116.845 174.221 122.205V134.125H169.221V122.445C169.221 120.925 168.927 119.818 168.341 119.125C167.781 118.432 166.901 118.085 165.701 118.085C164.234 118.085 163.061 118.552 162.181 119.485C161.327 120.392 160.901 121.605 160.901 123.125V134.125H155.901ZM186.379 134.525C181.579 134.525 179.179 131.832 179.179 126.445V114.565H184.179V126.525C184.179 127.912 184.459 128.938 185.019 129.605C185.579 130.272 186.473 130.605 187.699 130.605C189.033 130.605 190.126 130.152 190.979 129.245C191.833 128.312 192.259 127.085 192.259 125.565V114.565H197.259V134.125H192.379V131.205C191.073 133.418 189.073 134.525 186.379 134.525Z" fill="#303030"/>
<defs>
<radialGradient id="paint0_angular_715_237" cx="0" cy="0" r="1" gradientUnits="userSpaceOnUse" gradientTransform="translate(121.555 12.5263) rotate(90) scale(10 10.625)">
<stop stop-color="#8A8A8A"/>
<stop offset="0.7375" stop-color="#C8C4C4"/>
<stop offset="1" stop-opacity="0"/>
<stop offset="1" stop-color="#D5D5D5"/>
</radialGradient>
<radialGradient id="paint1_angular_715_237" cx="0" cy="0" r="1" gradientUnits="userSpaceOnUse" gradientTransform="translate(132.5 70.2478) rotate(79.2637) scale(60)">
<stop stop-color="#B8B8B7"/>
<stop offset="0.565625" stop-color="#D1D1D1"/>
<stop offset="1" stop-color="#DBDBDA"/>
</radialGradient>
</defs>
</svg>
