<svg width="306" height="79" viewBox="0 0 306 79" fill="none" xmlns="http://www.w3.org/2000/svg">
<path d="M304.5 39.5C304.5 44.1197 300.844 48.9257 293.195 53.5948C285.633 58.2107 274.59 62.4213 260.812 65.9783C233.279 73.0866 195.161 77.5 153 77.5C110.839 77.5 72.7208 73.0866 45.1876 65.9783C31.4098 62.4213 20.3672 58.2107 12.805 53.5948C5.15551 48.9257 1.5 44.1197 1.5 39.5C1.5 34.8803 5.15551 30.0743 12.805 25.4052C20.3672 20.7893 31.4098 16.5787 45.1876 13.0217C72.7208 5.91342 110.839 1.5 153 1.5C195.161 1.5 233.279 5.91342 260.812 13.0217C274.59 16.5787 285.633 20.7893 293.195 25.4052C300.844 30.0743 304.5 34.8803 304.5 39.5Z" stroke="#101010" stroke-width="3"/>
</svg>
